<svg xmlns="http://www.w3.org/2000/svg" xmlns:ev="http://www.w3.org/2001/xml-events" xmlns:xlink="http://www.w3.org/1999/xlink" width="725.633" height="159.444" class="st15" color-interpolation-filters="sRGB" viewBox="0 0 544.225 119.583" xml:space="preserve"><style type="text/css">.st1,.st2{fill:#fae6d9;stroke:#fff;stroke-linecap:round;stroke-linejoin:round;stroke-width:.5}.st2{fill:#fdf2ec}.st3{fill:#fff;stroke:none;stroke-width:1}.st4{fill:#f09609;stroke:#fff;stroke-linecap:round;stroke-linejoin:round;stroke-width:.5}.st5{fill:#fff;font-family:Segoe UI;font-size:1.33333em}.st10,.st11{stroke:#fff;stroke-linecap:round;stroke-linejoin:round;stroke-width:.5}.st6{fill:#dae7f6}.st6,.st7,.st8,.st9{stroke:#fff;stroke-linecap:round;stroke-linejoin:round;stroke-width:.5}.st7{fill:#ecf3fb}.st8{fill:#1ba1e2}.st9{fill:#f4d9e0}.st10{fill:#f9ecef}.st11{fill:#d80073}.st12,.st13{fill:#d1efd1}.st12,.st13,.st14{stroke-width:.75}.st12{stroke:#fff;stroke-linecap:round;stroke-linejoin:round}.st13{stroke:none;stroke-linecap:butt}.st14{fill:#393;stroke:#fff;stroke-linecap:round;stroke-linejoin:round}.st15{fill:none;fill-rule:evenodd;font-size:12px;overflow:visible;stroke-linecap:square;stroke-miterlimit:3}</style><g><title>Page-1</title><g id="group24-1" transform="translate(300.453,-0.25)"><title>Sheet.24</title><g id="group9-2"><title>Server.21</title><g id="shape10-3"><title>Sheet.10</title><rect width="93.484" height="115.766" x="0" y="3.817" class="st1"/></g><g id="shape11-5" transform="translate(69.8689,-49.4181)"><title>Sheet.11</title><ellipse cx="5.651" cy="115.116" class="st2" rx="5.651" ry="4.467"/></g><g id="shape12-7" transform="translate(35.5759,-18.9763)"><title>Sheet.12</title><path d="M0 119.58 L45.59 119.58 L45.59 116.69 L0 116.69 L0 119.58 ZM0 110.8 L45.59 110.8 L45.59 107.91 L0 107.91 L0 110.8 ZM0 102.03 L45.59 102.03 L45.59 99.13 L0 99.13 L0 102.03 Z" class="st3"/></g></g><g id="group17-9" transform="translate(20.6272,-61.7658)"><title>Entity 2.15</title><g id="shape18-10" transform="translate(0,-28.9415)"><title>Sheet.18</title><rect width="54.915" height="14.471" x="0" y="105.112" class="st4"/></g><g id="shape19-12"><title>Sheet.19</title><desc>BAS</desc><rect width="54.915" height="28.942" x="0" y="90.641" class="st4"/><text x="13.46" y="109.91" class="st5">BAS</text></g></g></g><g id="group25-15" transform="translate(450.491,-1.3557)"><title>Sheet.25</title><g id="group13-16"><title>Server.25</title><g id="shape14-17"><title>Sheet.14</title><rect width="93.484" height="115.766" x="0" y="3.817" class="st6"/></g><g id="shape15-19" transform="translate(69.8689,-49.4181)"><title>Sheet.15</title><ellipse cx="5.651" cy="115.116" class="st7" rx="5.651" ry="4.467"/></g><g id="shape16-21" transform="translate(35.5759,-18.9763)"><title>Sheet.16</title><path d="M0 119.58 L45.59 119.58 L45.59 116.69 L0 116.69 L0 119.58 ZM0 110.8 L45.59 110.8 L45.59 107.91 L0 107.91 L0 110.8 ZM0 102.03 L45.59 102.03 L45.59 99.13 L0 99.13 L0 102.03 Z" class="st3"/></g></g><g id="group20-23" transform="translate(19.2845,-53.7525)"><title>Entity 2.18</title><g id="shape21-24" transform="translate(0,-28.9415)"><title>Sheet.21</title><rect width="54.915" height="14.471" x="0" y="105.112" class="st8"/></g><g id="shape22-26"><title>Sheet.22</title><desc>Comd2</desc><rect width="54.915" height="28.942" x="0" y="90.641" class="st8"/><text x="1.9" y="109.91" class="st5">Comd2</text></g></g></g><g id="group26-29" transform="translate(150.414,-3.56709)"><title>Sheet.26</title><g id="group2-30"><title>Server</title><g id="shape3-31"><title>Sheet.3</title><rect width="93.484" height="115.766" x="0" y="3.817" class="st9"/></g><g id="shape4-33" transform="translate(69.8689,-49.4181)"><title>Sheet.4</title><ellipse cx="5.651" cy="115.116" class="st10" rx="5.651" ry="4.467"/></g><g id="shape5-35" transform="translate(35.5759,-18.9763)"><title>Sheet.5</title><path d="M0 119.58 L45.59 119.58 L45.59 116.69 L0 116.69 L0 119.58 ZM0 110.8 L45.59 110.8 L45.59 107.91 L0 107.91 L0 110.8 ZM0 102.03 L45.59 102.03 L45.59 99.13 L0 99.13 L0 102.03 Z" class="st3"/></g></g><g id="group6-37" transform="translate(19.2845,-57.6707)"><title>Entity 2</title><g id="shape7-38" transform="translate(0,-28.9415)"><title>Sheet.7</title><rect width="54.915" height="14.471" x="0" y="105.112" class="st11"/></g><g id="shape8-40"><title>Sheet.8</title><desc>Rapid</desc><rect width="54.915" height="28.942" x="0" y="90.641" class="st11"/><text x="7.25" y="109.91" class="st5">Rapid</text></g></g></g><g id="group27-43" transform="translate(0.375,-3.56709)"><title>Sheet.27</title><g id="group28-44" transform="translate(7.99361E-015,1.1057)"><title>Server</title><g id="shape29-45"><title>Sheet.29</title><rect width="93.484" height="115.766" x="0" y="3.817" class="st12"/></g><g id="shape30-47" transform="translate(69.8689,-49.4181)"><title>Sheet.30</title><ellipse cx="5.651" cy="115.116" class="st12" rx="5.651" ry="4.467"/></g><g id="shape31-49" transform="translate(35.5759,-18.9763)"><title>Sheet.31</title><path d="M0 119.58 L45.59 119.58 L45.59 116.69 L0 116.69 L0 119.58 ZM0 110.8 L45.59 110.8 L45.59 107.91 L0 107.91 L0 110.8 ZM0 102.03 L45.59 102.03 L45.59 99.13 L0 99.13 L0 102.03 Z" class="st13"/></g></g></g><g id="group35-51" transform="translate(19.6595,-61.2378)"><title>Sheet.35</title><g id="group32-52"><title>Entity 2</title><g id="shape33-53" transform="translate(0,-28.9415)"><title>Sheet.33</title><rect width="54.915" height="14.471" x="0" y="105.112" class="st14"/></g><g id="shape34-55"><title>Sheet.34</title><desc>Rapid</desc><rect width="54.915" height="28.942" x="0" y="90.641" class="st14"/><text x="20.29" y="109.91" class="st5">??</text></g></g></g></g></svg>