<svg xmlns="http://www.w3.org/2000/svg" xmlns:ev="http://www.w3.org/2001/xml-events" xmlns:xlink="http://www.w3.org/1999/xlink" width="816" height="11in" class="st18" color-interpolation-filters="sRGB" viewBox="0 0 612 792" xml:space="preserve"><style type="text/css">.st1{fill:red}.st2,.st3{stroke:#000}.st2,.st3,.st4{stroke-linecap:round;stroke-linejoin:round;stroke-width:.24}.st3{fill:#ca0000}.st4{fill:#c05046;stroke:none}.st5{fill:#fff;font-family:Arial;font-size:1.5em}.st6,.st7{stroke:none}.st6{fill:#4bacc6;stroke-linecap:round;stroke-linejoin:round;stroke-width:.24}.st7{fill:#7f7f7f;stroke-width:1}.st8{fill:none}.st9{stroke:none;stroke-linecap:round;stroke-linejoin:round;stroke-width:.75}.st10{fill:none;stroke-width:.24}.st10,.st11,.st12{stroke:none;stroke-linecap:round;stroke-linejoin:round}.st11{fill:#7f7f7f;stroke-width:.75;visibility:hidden}.st12{fill:#9dbb61;stroke-width:.24}.st13{font-size:1em}.st14{fill:#00b050}.st15{fill:#00863d}.st15,.st16,.st17{stroke:#000;stroke-linecap:round;stroke-linejoin:round;stroke-width:.24}.st16{fill:red}.st17{fill:#00b0f0}.st18{fill:none;fill-rule:evenodd;font-size:12px;overflow:visible;stroke-linecap:square;stroke-miterlimit:3}</style><g><title>Top Process</title><g id="group43-1" transform="translate(414,-500.4)"><title>Frowning Face</title><g id="shape43-2"><path d="M90 747 A45 45 -180 1 0 0 747 A45 45 -180 1 0 90 747 Z" class="st1"/><path d="M90 747 A45 45 -180 1 0 0 747 A45 45 -180 1 0 90 747" class="st2"/><path d="M22.5 765 A32.625 32.625 0 0 1 67.5 765" class="st2"/></g><g id="shape44-6" transform="translate(24.75,-51.75)"><title>Sheet.44</title><ellipse cx="6.75" cy="785.25" class="st3" rx="6.75" ry="6.75"/></g><g id="shape45-8" transform="translate(51.75,-51.75)"><title>Sheet.45</title><ellipse cx="6.75" cy="785.25" class="st3" rx="6.75" ry="6.75"/></g></g><g id="shape1-10" transform="translate(108,-655.2)"><title>Box</title><desc>Foo</desc><rect width="108" height="72" x="0" y="720" class="st4"/><text x="38.49" y="761.4" class="st5">Foo</text></g><g id="shape2-13" transform="translate(331.2,-655.2)"><title>Box.16</title><desc>BAR</desc><rect width="108" height="72" x="0" y="720" class="st6"/><text x="35.49" y="761.4" class="st5">BAR</text></g><g id="group3-16" transform="translate(237.12,-673.2)"><title>2-D single</title><g id="group4-17" transform="translate(0.48,0)"><title>Sheet.4</title><g id="shape5-18"><title>Sheet.5</title><path d="M0 783 L63 783 L63 792 L72 774 L63 756 L63 765 L0 765 L0 783 Z" class="st7"/></g><g id="shape6-20"><title>Sheet.6</title><path d="M0 783 L63 783 L63 792 L72 774 L63 756 L63 765 L0 765 L0 783 Z" class="st8"/><path d="M0 783 L63 783 L63 792 L72 774 L63 756 L63 765 L0 765" class="st9"/></g></g><g id="shape7-23" transform="translate(0.48,0)"><title>Sheet.7</title><path d="M0 783 L63 783 L63 792 L72 774 L63 756 L63 765 L0 765 L0 783 Z" class="st10"/></g><g id="shape8-25" transform="translate(4.3715E-016,-9.24)"><title>Sheet.8</title><rect width=".48" height="17.52" x="0" y="774.48" class="st11"/></g></g><g id="shape9-27" transform="translate(219.6,-511.2)"><title>Box.21</title><desc>MORE STUFF</desc><rect width="108" height="72" x="0" y="720" class="st12"/><text x="27" y="750.6" class="st5">MORE <tspan x="25" class="st13" dy="1.2em">STUFF</tspan></text></g><g id="group10-31" transform="translate(1010.18,546.266) rotate(120)"><title>2-D single.22</title><g id="group11-32" transform="translate(0.48,0)"><title>Sheet.11</title><g id="shape12-33"><title>Sheet.12</title><path d="M0 783 L25.44 783 L25.44 792 L34.44 774 L25.44 756 L25.44 765 L0 765 L0 783 Z" class="st7"/></g><g id="shape13-35"><title>Sheet.13</title><path d="M0 783 L25.44 783 L25.44 792 L34.44 774 L25.44 756 L25.44 765 L0 765 L0 783 Z" class="st8"/><path d="M0 783 L25.44 783 L25.44 792 L34.44 774 L25.44 756 L25.44 765 L0 765" class="st9"/></g></g><g id="shape14-38" transform="translate(0.48,0)"><title>Sheet.14</title><path d="M0 783 L25.44 783 L25.44 792 L34.44 774 L25.44 756 L25.44 765 L0 765 L0 783 Z" class="st10"/></g><g id="shape15-40" transform="translate(8.43076E-016,-9.24)"><title>Sheet.15</title><rect width=".48" height="17.52" x="0" y="774.48" class="st11"/></g></g><g id="group16-42" transform="translate(877.622,-227.734) rotate(60)"><title>2-D single.27</title><g id="group17-43" transform="translate(0.48,0)"><title>Sheet.17</title><g id="shape18-44"><title>Sheet.18</title><path d="M0 783 L25.44 783 L25.44 792 L34.44 774 L25.44 756 L25.44 765 L0 765 L0 783 Z" class="st7"/></g><g id="shape19-46"><title>Sheet.19</title><path d="M0 783 L25.44 783 L25.44 792 L34.44 774 L25.44 756 L25.44 765 L0 765 L0 783 Z" class="st8"/><path d="M0 783 L25.44 783 L25.44 792 L34.44 774 L25.44 756 L25.44 765 L0 765" class="st9"/></g></g><g id="shape20-49" transform="translate(0.48,0)"><title>Sheet.20</title><path d="M0 783 L25.44 783 L25.44 792 L34.44 774 L25.44 756 L25.44 765 L0 765 L0 783 Z" class="st10"/></g><g id="shape21-51" transform="translate(8.43076E-016,-9.24)"><title>Sheet.21</title><rect width=".48" height="17.52" x="0" y="774.48" class="st11"/></g></g><g id="group33-53" transform="translate(86.4,-380.53)"><title>Sheet.33</title></g><g id="group34-54" transform="translate(86.4,-380.53)"><title>Sheet.34</title></g><g id="group35-55" transform="translate(414,-500.4)"><title>Smiling Face</title><g id="shape35-56"><path d="M90 747 A45 45 -180 1 0 0 747 A45 45 -180 1 0 90 747 Z" class="st14"/><path d="M90 747 A45 45 -180 1 0 0 747 A45 45 -180 1 0 90 747" class="st2"/><path d="M22.5 765 A32.625 32.625 -180 0 0 67.5 765" class="st2"/></g><g id="shape36-60" transform="translate(24.75,-51.75)"><title>Sheet.36</title><ellipse cx="6.75" cy="785.25" class="st15" rx="6.75" ry="6.75"/></g><g id="shape37-62" transform="translate(51.75,-51.75)"><title>Sheet.37</title><ellipse cx="6.75" cy="785.25" class="st15" rx="6.75" ry="6.75"/></g></g><g id="shape46-64" transform="translate(313.2,-626.4)"><title>Multiplication Sign</title><path d="M14.76 759.56 L31.86 779.04 L73.8 747.95 L115.74 779.04 L132.84 759.56 L95.4 727.2 L132.84 694.84 L115.74 675.36 L73.8 706.45 L31.86 675.36 L14.76 694.84 L52.2 727.2 L14.76 759.56 Z" class="st16"/></g><g id="group48-66" transform="translate(55.5,-504)"><title>Can</title><g id="shape49-67"><title>Sheet.49</title><path d="M0 783 A36 9 -180 1 0 72 783 L72 711 L0 711 L0 783 Z" class="st17"/></g><g id="shape48-69"><ellipse cx="36" cy="711" class="st17" rx="36" ry="9"/></g></g><g id="group51-71" transform="translate(136.56,-525.6)"><title>2-D single.51</title><g id="group52-72" transform="translate(0.48,0)"><title>Sheet.52</title><g id="shape53-73"><title>Sheet.53</title><path d="M0 783 L63 783 L63 792 L72 774 L63 756 L63 765 L0 765 L0 783 Z" class="st7"/></g><g id="shape54-75"><title>Sheet.54</title><path d="M0 783 L63 783 L63 792 L72 774 L63 756 L63 765 L0 765 L0 783 Z" class="st8"/><path d="M0 783 L63 783 L63 792 L72 774 L63 756 L63 765 L0 765" class="st9"/></g></g><g id="shape55-78" transform="translate(0.48,0)"><title>Sheet.55</title><path d="M0 783 L63 783 L63 792 L72 774 L63 756 L63 765 L0 765 L0 783 Z" class="st10"/></g><g id="shape56-80" transform="translate(4.3715E-016,-9.24)"><title>Sheet.56</title><rect width=".48" height="17.52" x="0" y="774.48" class="st11"/></g></g></g></svg>